<svg xmlns="http://www.w3.org/2000/svg" viewBox="0 0 359.36 420.633" height="420.633" width="359.36"><path d="M280.888 152.955h19.118l-2.01 19.123 61.364-38.24L306.034 95.6l-2.01 19.118s-13.051-.105-18.786-.105c-53.146 0-79.392 17.55-69.319 61.927 5.192 22.87 10.717 36.055 20.807 72.015 13.352 47.589-27.069 95.598-90.625 95.598-78.708 0-110.277-80.93-43.479-236.962 13.692-31.984 31.519-67.124 53.915-105.365C152.06.636 147.303 0 142.327 0c-21.228 0-40.979 11.54-52.697 28.689a835.864 835.864 0 00-3.948 6.568C35.69 119.28 13.715 186.99 5.228 229.437c-20.687 103.5 19.296 190.746 132.838 191.195 98.961.393 201.05-96.095 153.902-191.195-22.714-45.818-38.135-76.48-11.08-76.48zm-86.51 95.599c-2.224 21.116-21.143 38.24-42.257 38.24-21.117 0-36.431-17.124-34.206-38.24 2.227-21.12 21.144-38.238 42.26-38.238 21.117 0 36.429 17.118 34.204 38.238" fill="#e51636"/></svg>